<svg width="22" height="22" viewBox="0 0 22 22" fill="none" xmlns="http://www.w3.org/2000/svg">
<path fill-rule="evenodd" clip-rule="evenodd" d="M19.5556 0.242676H2.44444C1.1 0.242676 0 1.29699 0 2.58561V10.7859C0 12.0745 1.1 13.1288 2.44444 13.1288H19.5556C20.9 13.1288 22 12.0745 22 10.7859V2.58561C22 1.29699 20.9 0.242676 19.5556 0.242676ZM19.5556 7.27147H14.6667C14.6667 9.16924 12.98 10.7859 11 10.7859C9.02 10.7859 7.33333 9.16924 7.33333 7.27147H2.44444V2.58561H19.5556V7.27147ZM22 15.4717H14.6667C14.6667 17.4164 13.0289 18.9861 11 18.9861C8.97111 18.9861 7.33333 17.4164 7.33333 15.4717H0V18.9861C0 20.2747 1.1 21.3291 2.44444 21.3291H19.5556C20.9 21.3291 22 20.2747 22 18.9861V15.4717Z" fill="#2B292D"/>
</svg>
