<svg width="24" height="24" viewBox="0 0 24 24" fill="none" xmlns="http://www.w3.org/2000/svg">
<path fill-rule="evenodd" clip-rule="evenodd" d="M12 0.672852C5.376 0.672852 0 5.8256 0 12.1745C0 18.5234 5.376 23.6762 12 23.6762C18.624 23.6762 24 18.5234 24 12.1745C24 5.8256 18.624 0.672852 12 0.672852ZM12 10.9093C11.268 10.9093 10.68 11.4729 10.68 12.1745C10.68 12.8761 11.268 13.4397 12 13.4397C12.732 13.4397 13.32 12.8761 13.32 12.1745C13.32 11.4729 12.732 10.9093 12 10.9093ZM4.8 19.0755L14.628 14.6934L19.2 5.27352L9.372 9.65565L4.8 19.0755Z" fill="#2B292D"/>
</svg>
